<?xml version="1.0" standalone="no"?><!DOCTYPE svg PUBLIC "-//W3C//DTD SVG 1.1//EN" "http://www.w3.org/Graphics/SVG/1.1/DTD/svg11.dtd"><svg t="1703569235248" class="icon" viewBox="0 0 1040 1024" version="1.1" xmlns="http://www.w3.org/2000/svg" p-id="4242" xmlns:xlink="http://www.w3.org/1999/xlink" width="203.125" height="200"><path d="M621.714 402.286H950.86c40.41 0 73.142 32.548 73.142 73.142V950.86C1024 991.268 991.452 1024 950.858 1024H475.428c-40.41 0-73.142-32.548-73.142-73.142V621.714H73.14C32.732 621.714 0 589.166 0 548.572V73.14C0 32.732 32.548 0 73.142 0h475.43c40.41 0 73.142 32.548 73.142 73.142v329.144z m0 73.142v73.144c0 40.41-32.548 73.142-73.142 73.142h-73.144v292.608c0 20.188 16.348 36.536 36.536 36.536h402.32c20.18 0 36.536-16.358 36.536-36.536V512c0-20.178-16.356-36.534-36.534-36.534H621.714v-0.038zM73.142 109.68V512c0 20.188 16.348 36.534 36.536 36.534H512A36.534 36.534 0 0 0 548.534 512V109.714a36.534 36.534 0 0 0-36.498-36.572H109.716A36.534 36.534 0 0 0 73.14 109.68z m73.144 279.186v-183.88h128.84V128h53.432c7.314 1.06 11.008 2.084 11.008 3.146a12.068 12.068 0 0 1-1.572 4.716c-3.146 8.376-4.72 18.324-4.72 29.844v39.276h136.742v179.164h-58.148V360.56h-78.592v135.168H276.7v-135.168H199.716v28.306H146.286z m53.394-139.85v69.12h77.02v-69.082H199.716l-0.036-0.038z m212.188 69.12v-69.082h-78.592v69.12h78.592v-0.038z m232.96 557.716H585.14l105.29-290.708h73.874l102.108 290.744h-62.83l-22.016-61.33h-114.724l-21.98 61.294h-0.036z m37.74-110.008h83.274l-39.278-124.124h-1.572l-42.422 124.124zM950.86 292.572h-73.144c0-80.792-65.494-146.286-146.286-146.286V73.14c121.188 0 219.43 98.242 219.43 219.43zM73.14 731.428h73.144c0 80.792 65.494 146.286 146.286 146.286v73.144c-121.188 0-219.43-98.242-219.43-219.43z" fill="#cdcdcd" p-id="4243"></path></svg>